<svg xmlns="http://www.w3.org/2000/svg" xmlns:xlink="http://www.w3.org/1999/xlink" width="149" zoomAndPan="magnify" viewBox="0 0 111.75 133.500001" height="178" preserveAspectRatio="xMidYMid meet" version="1.0"><defs><filter x="0%" y="0%" width="100%" height="100%" id="8503cc9e4e"><feColorMatrix values="0 0 0 0 1 0 0 0 0 1 0 0 0 0 1 0 0 0 1 0" color-interpolation-filters="sRGB"/></filter><g/><mask id="1ad251e748"><g filter="url(#8503cc9e4e)"><rect x="-11.175" width="134.1" fill="#000000" y="-13.35" height="160.200001" fill-opacity="0.299"/></g></mask><clipPath id="b99e84302c"><path d="M 0.445312 0.472656 L 6.902344 0.472656 L 6.902344 12 L 0.445312 12 Z M 0.445312 0.472656 " clip-rule="nonzero"/></clipPath><clipPath id="9d25b04a24"><rect x="0" width="7" y="0" height="13"/></clipPath><mask id="6fc98a4835"><g filter="url(#8503cc9e4e)"><rect x="-11.175" width="134.1" fill="#000000" y="-13.35" height="160.200001" fill-opacity="0.348"/></g></mask><clipPath id="f60795f1dc"><path d="M 0.105469 0.0195312 L 80 0.0195312 L 80 16 L 0.105469 16 Z M 0.105469 0.0195312 " clip-rule="nonzero"/></clipPath><clipPath id="6c221da863"><rect x="0" width="81" y="0" height="17"/></clipPath><clipPath id="1e635a8ada"><path d="M 8 6 L 102.761719 6 L 102.761719 64 L 8 64 Z M 8 6 " clip-rule="nonzero"/></clipPath><mask id="015f271e31"><g filter="url(#8503cc9e4e)"><rect x="-11.175" width="134.1" fill="#000000" y="-13.35" height="160.200001" fill-opacity="0.5"/></g></mask><clipPath id="006466c757"><path d="M 1 0.257812 L 20.492188 0.257812 L 20.492188 28.710938 L 1 28.710938 Z M 1 0.257812 " clip-rule="nonzero"/></clipPath><clipPath id="1533f30e6b"><rect x="0" width="21" y="0" height="29"/></clipPath><mask id="b9a0ba89d7"><g filter="url(#8503cc9e4e)"><rect x="-11.175" width="134.1" fill="#000000" y="-13.35" height="160.200001" fill-opacity="0.5"/></g></mask><clipPath id="23a54341c2"><path d="M 0.359375 0.210938 L 5.859375 0.210938 L 5.859375 30.816406 L 0.359375 30.816406 Z M 0.359375 0.210938 " clip-rule="nonzero"/></clipPath><clipPath id="3e8695d7ae"><rect x="0" width="6" y="0" height="31"/></clipPath></defs><path fill="#e3b9c6" d="M 74.6875 64.097656 C 74.6875 64.097656 76.144531 61.222656 75.878906 57.578125 C 75.617188 53.929688 79.40625 56.238281 79.40625 56.238281 L 80.753906 64.847656 C 80.753906 64.84375 76.410156 70.003906 74.6875 64.097656 Z M 74.6875 64.097656 " fill-opacity="1" fill-rule="evenodd"/><g mask="url(#1ad251e748)"><g transform="matrix(1, 0, 0, 1, 74, 55)"><g clip-path="url(#9d25b04a24)"><g clip-path="url(#b99e84302c)"><path fill="#e3b9c6" d="M 0.6875 9.097656 C 0.6875 9.097656 2.144531 6.222656 1.878906 2.578125 C 1.617188 -1.070312 5.40625 1.238281 5.40625 1.238281 L 6.753906 9.847656 C 6.753906 9.84375 2.410156 15.003906 0.6875 9.097656 Z M 0.6875 9.097656 " fill-opacity="1" fill-rule="evenodd"/></g></g></g></g><path fill="#e3b9c6" d="M 44.097656 59.1875 C 44.097656 59.1875 45.386719 65.382812 41.90625 68.03125 C 38.421875 70.675781 31.546875 53.648438 31.546875 53.648438 L 41.800781 55.730469 Z M 44.097656 59.1875 " fill-opacity="1" fill-rule="evenodd"/><path fill="#fff6e4" d="M 10.890625 7.15625 C 10.890625 7.15625 14.296875 4.953125 16.316406 4.234375 C 16.316406 4.234375 20.828125 4.371094 25.277344 5.203125 C 25.277344 5.203125 24.351562 1.277344 23.597656 0.0703125 C 23.597656 0.0703125 38.117188 5.40625 43.195312 8.691406 C 48.277344 11.972656 51.933594 17.386719 53.191406 19.230469 C 53.191406 19.230469 57.21875 14.101562 63.691406 11.570312 C 71.054688 8.691406 81.449219 6.910156 86.75 5.972656 C 91.367188 5.160156 93.054688 5.082031 93.410156 5.179688 C 94.09375 5.363281 99.050781 7.136719 101.164062 8.289062 L 93.351562 21.308594 L 40.371094 30.484375 Z M 10.890625 7.15625 " fill-opacity="1" fill-rule="evenodd"/><g mask="url(#6fc98a4835)"><g transform="matrix(1, 0, 0, 1, 16, 5)"><g clip-path="url(#6c221da863)"><g clip-path="url(#f60795f1dc)"><path fill="#e3b9c6" d="M 63.320312 4.667969 C 63.234375 4.683594 63.152344 4.632812 63.136719 4.546875 C 63.117188 4.46875 63.167969 4.382812 63.25 4.363281 C 63.25 4.363281 73.515625 2.089844 79.625 1.699219 C 79.714844 1.695312 79.78125 1.761719 79.792969 1.84375 C 79.796875 1.929688 79.734375 2.003906 79.648438 2.007812 C 73.546875 2.398438 63.320312 4.667969 63.320312 4.667969 Z M 44.804688 11.519531 C 44.742188 11.578125 44.644531 11.574219 44.589844 11.515625 C 44.53125 11.457031 44.53125 11.355469 44.59375 11.296875 C 44.59375 11.296875 48.003906 8.03125 60.105469 5.007812 C 60.191406 4.988281 60.273438 5.039062 60.296875 5.121094 C 60.3125 5.203125 60.261719 5.285156 60.179688 5.308594 C 48.195312 8.304688 44.804688 11.519531 44.804688 11.519531 Z M 38.53125 14.933594 C 38.476562 15 38.378906 15.015625 38.316406 14.960938 C 38.25 14.910156 38.234375 14.816406 38.28125 14.746094 C 38.28125 14.746094 42.308594 9.433594 49.882812 6.84375 C 61.621094 2.828125 77.90625 0.859375 77.90625 0.859375 C 77.992188 0.847656 78.070312 0.90625 78.078125 0.992188 C 78.089844 1.074219 78.03125 1.152344 77.945312 1.164062 C 77.945312 1.164062 61.691406 3.128906 49.980469 7.132812 C 42.503906 9.691406 38.53125 14.933594 38.53125 14.933594 Z M 4.1875 2.246094 C 4.101562 2.238281 4.042969 2.164062 4.050781 2.078125 C 4.0625 1.992188 4.132812 1.933594 4.222656 1.941406 C 4.222656 1.941406 22.578125 3.941406 34.800781 14.859375 C 34.867188 14.917969 34.871094 15.015625 34.8125 15.078125 C 34.753906 15.140625 34.65625 15.144531 34.597656 15.089844 C 22.441406 4.234375 4.1875 2.246094 4.1875 2.246094 Z M 33.230469 12.050781 C 33.296875 12.105469 33.300781 12.203125 33.246094 12.265625 C 33.191406 12.328125 33.089844 12.339844 33.027344 12.28125 C 33.027344 12.28125 21.945312 2.535156 0.53125 0.496094 C 0.449219 0.488281 0.386719 0.414062 0.394531 0.328125 C 0.402344 0.246094 0.476562 0.183594 0.5625 0.191406 C 22.09375 2.242188 33.230469 12.050781 33.230469 12.050781 Z M 9.535156 0.421875 C 9.453125 0.402344 9.398438 0.320312 9.417969 0.238281 C 9.433594 0.152344 9.515625 0.101562 9.601562 0.121094 C 9.601562 0.121094 19.089844 2.183594 26.082031 5.921875 C 33.089844 9.671875 36.230469 12.820312 38.066406 15.515625 C 38.113281 15.585938 38.097656 15.683594 38.027344 15.730469 C 37.957031 15.78125 37.859375 15.761719 37.816406 15.691406 C 35.992188 13.019531 32.875 9.90625 25.9375 6.195312 C 18.980469 2.472656 9.535156 0.421875 9.535156 0.421875 Z M 9.535156 0.421875 " fill-opacity="1" fill-rule="evenodd"/></g></g></g></g><g clip-path="url(#1e635a8ada)"><path fill="#74ad9d" d="M 8.449219 6.835938 C 7.871094 6.820312 8.953125 8.875 10.105469 13.3125 C 11.253906 17.742188 14.949219 37.871094 15.675781 42.261719 C 16.40625 46.652344 16.195312 49.347656 16.570312 49.875 C 16.949219 50.402344 25.554688 52.773438 35.1875 56.6875 C 44.816406 60.597656 50.230469 63.578125 50.230469 63.578125 C 50.230469 63.578125 55.085938 64.003906 55.644531 63.699219 C 56.207031 63.394531 74.625 57.632812 91.800781 56.355469 C 91.800781 56.355469 94.109375 35.878906 97.980469 23.210938 C 101.847656 10.542969 102.910156 8.699219 102.585938 8.226562 C 102.261719 7.753906 95.386719 8.046875 85.304688 9.667969 C 75.21875 11.289062 61.476562 15.613281 55.542969 21.613281 L 49.566406 20.933594 C 49.566406 20.933594 43.8125 16.125 34.105469 12.207031 C 26.96875 9.324219 17.226562 7.074219 8.449219 6.835938 Z M 8.449219 6.835938 " fill-opacity="1" fill-rule="evenodd"/></g><path fill="#e3b9c6" d="M 52.613281 34.9375 C 52.632812 34.855469 52.722656 34.808594 52.800781 34.835938 C 52.886719 34.859375 52.929688 34.945312 52.902344 35.027344 C 52.902344 35.027344 52.269531 37.066406 52.621094 39.652344 C 52.984375 42.300781 52.8125 42.367188 52.589844 43.976562 C 52.484375 44.742188 52.636719 45.109375 52.789062 45.570312 C 52.949219 46.066406 53.128906 46.667969 53.046875 47.902344 C 53.042969 47.988281 52.96875 48.054688 52.886719 48.046875 C 52.800781 48.042969 52.734375 47.96875 52.742188 47.886719 C 52.816406 46.710938 52.652344 46.140625 52.492188 45.671875 C 52.324219 45.167969 52.171875 44.769531 52.285156 43.9375 C 52.5 42.355469 52.671875 42.292969 52.3125 39.695312 C 51.949219 37.03125 52.613281 34.9375 52.613281 34.9375 Z M 52.613281 34.9375 " fill-opacity="1" fill-rule="evenodd"/><path fill="#fff6e4" d="M 50.425781 59.382812 C 51.558594 59.480469 53.609375 59.597656 55.289062 59.390625 C 55.394531 59.378906 55.496094 59.367188 55.597656 59.347656 C 55.582031 57.28125 55.574219 54.65625 55.578125 51.761719 C 55.480469 51.761719 55.382812 51.769531 55.269531 51.769531 C 54.171875 51.808594 52.257812 51.847656 50.289062 51.785156 C 50.1875 51.78125 50.085938 51.777344 49.984375 51.773438 C 50.039062 54.574219 50.085938 57.175781 50.113281 59.359375 C 50.207031 59.367188 50.3125 59.375 50.425781 59.382812 Z M 50.425781 59.382812 " fill-opacity="1" fill-rule="evenodd"/><path fill="#e3b9c6" d="M 51.433594 57.5625 C 51.351562 57.5625 51.28125 57.496094 51.28125 57.417969 C 51.28125 57.339844 51.347656 57.277344 51.429688 57.273438 L 54.15625 57.257812 C 54.242188 57.257812 54.3125 57.320312 54.3125 57.398438 C 54.3125 57.480469 54.246094 57.542969 54.164062 57.542969 Z M 51.433594 56.375 C 51.351562 56.375 51.28125 56.3125 51.28125 56.234375 C 51.28125 56.15625 51.347656 56.09375 51.429688 56.09375 L 54.15625 56.078125 C 54.242188 56.078125 54.3125 56.140625 54.3125 56.21875 C 54.3125 56.296875 54.246094 56.359375 54.164062 56.363281 Z M 51.433594 55.191406 C 51.351562 55.191406 51.28125 55.128906 51.28125 55.050781 C 51.28125 54.96875 51.347656 54.90625 51.429688 54.90625 L 54.15625 54.890625 C 54.242188 54.890625 54.3125 54.953125 54.3125 55.03125 C 54.3125 55.109375 54.246094 55.171875 54.164062 55.171875 Z M 51.433594 54.007812 C 51.351562 54.007812 51.28125 53.941406 51.28125 53.863281 C 51.28125 53.785156 51.347656 53.722656 51.429688 53.71875 L 54.15625 53.703125 C 54.242188 53.703125 54.3125 53.765625 54.3125 53.847656 C 54.3125 53.925781 54.246094 53.988281 54.164062 53.992188 Z M 51.433594 54.007812 " fill-opacity="1" fill-rule="evenodd"/><path fill="#fff6e4" d="M 49.730469 27.285156 C 50.820312 27.398438 53.207031 27.613281 55.367188 27.613281 C 55.46875 27.613281 55.574219 27.613281 55.671875 27.613281 C 55.667969 28.484375 55.664062 29.4375 55.65625 30.453125 C 55.5625 30.457031 55.460938 30.457031 55.347656 30.457031 C 54.097656 30.46875 51.589844 30.46875 49.804688 30.300781 C 49.699219 30.289062 49.597656 30.277344 49.496094 30.269531 C 49.46875 29.1875 49.445312 28.175781 49.421875 27.253906 C 49.503906 27.261719 49.613281 27.277344 49.730469 27.285156 Z M 49.730469 27.285156 " fill-opacity="1" fill-rule="evenodd"/><path fill="#fff6e4" d="M 63.753906 25.933594 C 63.273438 26.210938 63.082031 38.390625 63.476562 38.640625 C 63.867188 38.890625 68.445312 36.0625 76.3125 34.222656 C 84.183594 32.382812 88.515625 32.097656 88.796875 31.847656 C 89.078125 31.59375 90.4375 24.15625 91.15625 21.105469 C 91.867188 18.050781 92.234375 17 92.003906 17.023438 C 91.769531 17.050781 77.460938 18.003906 63.753906 25.933594 Z M 63.753906 25.933594 " fill-opacity="1" fill-rule="evenodd"/><path fill="#e3b9c6" d="M 31.964844 63.199219 C 31.964844 63.199219 28.554688 60.628906 25.972656 58.738281 C 23.390625 56.847656 20.902344 54.875 20.355469 53.957031 C 20.355469 53.957031 18.699219 53.175781 18.417969 51.828125 C 18.132812 50.480469 18.914062 48.621094 20.292969 45.851562 C 21.671875 43.082031 22.765625 40.460938 24.066406 37.726562 C 25.179688 35.386719 25.601562 35.109375 26.441406 35.671875 C 27.207031 36.183594 27.015625 38.46875 27.015625 38.46875 C 27.015625 38.46875 27.832031 35.335938 28.957031 35.527344 C 30.085938 35.722656 30.621094 37.347656 30.445312 38.613281 C 30.445312 38.613281 31.195312 37.3125 32.058594 37.933594 C 32.921875 38.554688 33.128906 40.601562 32.25 45.132812 C 32.25 45.132812 33.015625 43.527344 34.09375 43.964844 C 35.175781 44.402344 34.917969 46.917969 34.472656 49.417969 C 34.023438 51.917969 33.390625 54.769531 33.835938 55.375 C 34.28125 55.980469 37.925781 57.539062 39.617188 59.257812 C 41.304688 60.976562 42.765625 66.789062 42.765625 66.789062 C 42.765625 66.789062 40.59375 75.046875 39.191406 84.25 C 37.789062 93.453125 33.65625 122.339844 31.546875 129.707031 C 31.546875 129.707031 22.082031 132.40625 13.203125 126.46875 C 13.203125 126.46875 23.09375 95.980469 25.894531 86.160156 C 28.6875 76.335938 32.382812 64.5625 31.964844 63.199219 Z M 31.964844 63.199219 " fill-opacity="1" fill-rule="evenodd"/><g mask="url(#015f271e31)"><g transform="matrix(1, 0, 0, 1, 20, 38)"><g clip-path="url(#1533f30e6b)"><g clip-path="url(#006466c757)"><path fill="#e3b9c6" d="M 18.292969 20.402344 C 18.222656 20.355469 18.203125 20.257812 18.253906 20.1875 C 18.300781 20.113281 18.398438 20.097656 18.464844 20.144531 C 18.464844 20.144531 19.53125 20.871094 20.234375 21.871094 C 20.28125 21.941406 20.265625 22.039062 20.195312 22.085938 C 20.128906 22.136719 20.03125 22.121094 19.980469 22.050781 C 19.308594 21.09375 18.292969 20.402344 18.292969 20.402344 Z M 12.109375 25.414062 C 12.039062 25.367188 12.011719 25.273438 12.058594 25.199219 C 12.101562 25.128906 12.199219 25.105469 12.269531 25.152344 C 12.269531 25.152344 15.285156 27.019531 16.28125 28.007812 C 16.34375 28.070312 16.34375 28.167969 16.28125 28.226562 C 16.222656 28.289062 16.125 28.289062 16.066406 28.226562 C 15.085938 27.253906 12.109375 25.414062 12.109375 25.414062 Z M 11.988281 7.382812 C 12.015625 7.300781 12.105469 7.257812 12.183594 7.285156 C 12.265625 7.3125 12.308594 7.398438 12.28125 7.480469 C 12.28125 7.480469 11.21875 10.582031 10.203125 13.214844 C 9.199219 15.8125 8.695312 17.210938 8.804688 18.414062 C 8.8125 18.5 8.75 18.574219 8.667969 18.582031 C 8.582031 18.589844 8.507812 18.527344 8.5 18.445312 C 8.386719 17.207031 8.886719 15.769531 9.914062 13.105469 C 10.929688 10.480469 11.988281 7.382812 11.988281 7.382812 Z M 10.183594 0.753906 C 10.210938 0.671875 10.296875 0.628906 10.378906 0.652344 C 10.457031 0.675781 10.503906 0.765625 10.480469 0.84375 C 10.480469 0.84375 9.054688 5.410156 7.84375 8.472656 C 6.636719 11.53125 5.839844 13.640625 5.457031 14.789062 C 5.082031 15.898438 5.214844 16.234375 5.277344 16.777344 C 5.289062 16.859375 5.226562 16.9375 5.144531 16.945312 C 5.058594 16.957031 4.984375 16.898438 4.972656 16.808594 C 4.90625 16.230469 4.769531 15.875 5.167969 14.6875 C 5.554688 13.535156 6.351562 11.421875 7.5625 8.359375 C 8.765625 5.304688 10.183594 0.753906 10.183594 0.753906 Z M 6.757812 0.621094 C 6.789062 0.539062 6.875 0.496094 6.957031 0.523438 C 7.039062 0.554688 7.078125 0.640625 7.050781 0.722656 C 7.050781 0.722656 6.027344 3.636719 4.402344 7.164062 C 2.78125 10.679688 2.160156 12.5625 1.75 13.566406 C 1.351562 14.542969 1.328125 14.707031 1.328125 15.308594 C 1.328125 15.390625 1.257812 15.460938 1.175781 15.460938 C 1.089844 15.460938 1.019531 15.394531 1.019531 15.308594 C 1.015625 14.667969 1.039062 14.496094 1.464844 13.457031 C 1.875 12.445312 2.496094 10.558594 4.121094 7.039062 C 5.738281 3.523438 6.757812 0.621094 6.757812 0.621094 Z M 6.757812 0.621094 " fill-opacity="1" fill-rule="evenodd"/></g></g></g></g><path fill="#e3b9c6" d="M 72.53125 85.355469 C 72.121094 83.453125 71.660156 81.875 70.632812 79.832031 C 69.609375 77.789062 68.554688 74.71875 69.960938 71.902344 C 71.371094 69.089844 72.101562 68.207031 71.996094 67.042969 C 71.890625 65.878906 72.078125 65.917969 70.769531 64.457031 C 69.464844 62.996094 67.839844 61.195312 67.351562 59.789062 C 66.863281 58.382812 67.117188 57.40625 68.121094 57.441406 C 69.121094 57.472656 71.015625 59.867188 73.527344 61.796875 C 76.039062 63.730469 77.507812 64.683594 77.496094 62.035156 C 77.488281 59.386719 77.027344 55.296875 76.625 52.570312 C 76.222656 49.84375 75.371094 47.453125 75.675781 45.796875 C 75.980469 44.140625 76.953125 43.824219 77.425781 44.035156 C 77.894531 44.25 79.054688 48.175781 79.6875 50.21875 C 79.6875 50.21875 79.34375 47.082031 79.335938 45.542969 C 79.320312 44.003906 79.589844 42.894531 80.433594 42.445312 C 81.28125 42 81.992188 41.910156 82.390625 44.636719 C 82.792969 47.363281 83.101562 48.425781 83.3125 50.195312 C 83.546875 52.160156 84.316406 56.46875 84.542969 57.785156 C 84.773438 59.097656 85.390625 59.5 85.671875 57.003906 C 85.957031 54.507812 86.144531 53.011719 86.40625 49.976562 C 86.667969 46.941406 86.210938 44.183594 87.359375 42.871094 C 88.511719 41.554688 89.105469 41.941406 89.355469 42.628906 C 89.605469 43.3125 89.425781 45.183594 89.480469 48.421875 C 89.539062 51.660156 89.5 52.203125 89.425781 56.011719 C 89.347656 59.816406 89.695312 60.464844 89.425781 61.953125 C 89.160156 63.441406 88.375 64.933594 84.894531 70.546875 C 81.414062 76.15625 81.667969 76.347656 81.660156 78.03125 C 81.652344 79.71875 88.113281 99.832031 90.804688 107.367188 C 93.496094 114.902344 96.558594 123.628906 97.328125 126.621094 C 97.328125 126.621094 93.199219 131.453125 80.035156 131.417969 C 80.035156 131.417969 76.253906 108.667969 75.082031 100.058594 C 73.914062 91.453125 72.941406 87.261719 72.53125 85.355469 Z M 72.53125 85.355469 " fill-opacity="1" fill-rule="evenodd"/><g mask="url(#b9a0ba89d7)"><g transform="matrix(1, 0, 0, 1, 76, 50)"><g clip-path="url(#3e8695d7ae)"><g clip-path="url(#23a54341c2)"><path fill="#e3b9c6" d="M 3.652344 0.515625 C 3.625 0.4375 3.671875 0.347656 3.753906 0.324219 C 3.832031 0.300781 3.921875 0.347656 3.949219 0.429688 C 3.949219 0.429688 4.378906 1.851562 4.648438 3.582031 C 4.921875 5.300781 5.320312 7.914062 5.667969 10.425781 C 5.679688 10.507812 5.621094 10.585938 5.535156 10.597656 C 5.453125 10.609375 5.378906 10.550781 5.363281 10.464844 C 5.019531 7.960938 4.613281 5.347656 4.34375 3.628906 C 4.074219 1.921875 3.652344 0.515625 3.652344 0.515625 Z M 4.621094 28.277344 C 4.5625 28.335938 4.464844 28.339844 4.402344 28.28125 C 4.339844 28.21875 4.339844 28.121094 4.394531 28.0625 C 4.394531 28.0625 5.039062 27.40625 5.339844 26.78125 C 5.375 26.707031 5.46875 26.675781 5.542969 26.710938 C 5.621094 26.75 5.652344 26.839844 5.617188 26.917969 C 5.292969 27.582031 4.621094 28.277344 4.621094 28.277344 Z M 1.011719 30.695312 C 0.933594 30.726562 0.84375 30.6875 0.816406 30.609375 C 0.785156 30.53125 0.824219 30.441406 0.90625 30.410156 C 0.90625 30.410156 2.640625 29.734375 4.042969 28.433594 C 4.105469 28.378906 4.203125 28.382812 4.261719 28.441406 C 4.320312 28.507812 4.3125 28.601562 4.253906 28.660156 C 2.804688 30 1.011719 30.695312 1.011719 30.695312 Z M 1.011719 30.695312 " fill-opacity="1" fill-rule="evenodd"/></g></g></g></g><path fill="#e3b9c6" d="M 55.398438 22.070312 C 55.398438 21.984375 55.46875 21.917969 55.554688 21.917969 C 55.640625 21.917969 55.710938 21.988281 55.710938 22.070312 C 55.710938 22.070312 55.460938 57.101562 55.65625 63.089844 C 55.65625 63.175781 55.589844 63.246094 55.507812 63.25 C 55.421875 63.253906 55.351562 63.1875 55.351562 63.101562 C 55.148438 57.109375 55.398438 22.070312 55.398438 22.070312 Z M 49.277344 21.703125 C 49.277344 21.617188 49.339844 21.546875 49.425781 21.542969 C 49.511719 21.542969 49.582031 21.609375 49.582031 21.695312 C 49.582031 21.695312 50.417969 53.421875 50.464844 63.070312 C 50.464844 63.15625 50.390625 63.226562 50.308594 63.226562 C 50.222656 63.226562 50.152344 63.160156 50.152344 63.074219 C 50.109375 53.421875 49.277344 21.703125 49.277344 21.703125 Z M 49.277344 21.703125 " fill-opacity="1" fill-rule="evenodd"/><g fill="#fff6e4" fill-opacity="1"><g transform="translate(5.133409, 108.008672)"><g><path d="M 2.90625 -14.8125 C 3.164062 -14.8125 3.613281 -14.828125 4.25 -14.859375 C 5.132812 -14.921875 5.816406 -14.953125 6.296875 -14.953125 C 7.910156 -14.953125 9.117188 -14.640625 9.921875 -14.015625 C 10.722656 -13.398438 11.125 -12.546875 11.125 -11.453125 C 11.125 -10.972656 11.046875 -10.492188 10.890625 -10.015625 C 10.734375 -9.535156 10.488281 -9.113281 10.15625 -8.75 C 9.820312 -8.382812 9.394531 -8.132812 8.875 -8 C 9.46875 -7.976562 10.007812 -7.796875 10.5 -7.453125 C 11 -7.117188 11.394531 -6.679688 11.6875 -6.140625 C 11.976562 -5.597656 12.125 -5.03125 12.125 -4.4375 C 12.125 -2.976562 11.671875 -1.847656 10.765625 -1.046875 C 9.859375 -0.253906 8.316406 0.140625 6.140625 0.140625 C 5.316406 0.140625 4.257812 0.09375 2.96875 0 L 1.890625 0 L 1.890625 -14.8125 Z M 6.734375 -8.390625 C 7.171875 -8.390625 7.5625 -8.488281 7.90625 -8.6875 C 8.25 -8.894531 8.519531 -9.207031 8.71875 -9.625 C 8.925781 -10.039062 9.03125 -10.546875 9.03125 -11.140625 C 9.03125 -11.898438 8.765625 -12.46875 8.234375 -12.84375 C 7.703125 -13.226562 6.925781 -13.421875 5.90625 -13.421875 C 5.601562 -13.421875 5.242188 -13.410156 4.828125 -13.390625 C 4.421875 -13.367188 4.160156 -13.335938 4.046875 -13.296875 L 4.046875 -8.4375 C 4.328125 -8.382812 4.738281 -8.359375 5.28125 -8.359375 L 6.078125 -8.375 C 6.234375 -8.382812 6.453125 -8.390625 6.734375 -8.390625 Z M 6.40625 -1.4375 C 7.5625 -1.4375 8.4375 -1.644531 9.03125 -2.0625 C 9.632812 -2.476562 9.9375 -3.1875 9.9375 -4.1875 C 9.9375 -5.101562 9.65625 -5.773438 9.09375 -6.203125 C 8.539062 -6.628906 7.675781 -6.84375 6.5 -6.84375 L 5.390625 -6.84375 C 4.765625 -6.84375 4.316406 -6.828125 4.046875 -6.796875 L 4.046875 -1.65625 C 4.191406 -1.570312 4.484375 -1.515625 4.921875 -1.484375 C 5.359375 -1.453125 5.851562 -1.4375 6.40625 -1.4375 Z M 6.40625 -1.4375 "/></g></g></g><g fill="#fff6e4" fill-opacity="1"><g transform="translate(18.155701, 108.008672)"><g><path d="M 4.015625 -11.0625 L 4.015625 0 L 1.875 0 L 1.875 -11.0625 Z M 1.46875 -14.421875 C 1.46875 -14.691406 1.539062 -14.941406 1.6875 -15.171875 C 1.84375 -15.410156 2.046875 -15.597656 2.296875 -15.734375 C 2.546875 -15.867188 2.796875 -15.9375 3.046875 -15.9375 C 3.484375 -15.9375 3.820312 -15.8125 4.0625 -15.5625 C 4.300781 -15.3125 4.421875 -15 4.421875 -14.625 C 4.421875 -14.332031 4.34375 -14.066406 4.1875 -13.828125 C 4.039062 -13.597656 3.847656 -13.421875 3.609375 -13.296875 C 3.367188 -13.171875 3.113281 -13.109375 2.84375 -13.109375 C 2.59375 -13.109375 2.363281 -13.160156 2.15625 -13.265625 C 1.945312 -13.367188 1.78125 -13.519531 1.65625 -13.71875 C 1.53125 -13.925781 1.46875 -14.160156 1.46875 -14.421875 Z M 1.46875 -14.421875 "/></g></g></g><g fill="#fff6e4" fill-opacity="1"><g transform="translate(24.049285, 108.008672)"><g><path d="M 6.71875 -11.25 C 7.519531 -11.25 8.25 -11.050781 8.90625 -10.65625 C 9.570312 -10.257812 10.101562 -9.664062 10.5 -8.875 C 10.894531 -8.082031 11.09375 -7.109375 11.09375 -5.953125 C 11.09375 -4.765625 10.859375 -3.703125 10.390625 -2.765625 C 9.929688 -1.835938 9.273438 -1.113281 8.421875 -0.59375 C 7.578125 -0.0820312 6.601562 0.171875 5.5 0.171875 C 5.019531 0.171875 4.503906 0.125 3.953125 0.03125 C 3.410156 -0.0507812 2.921875 -0.15625 2.484375 -0.28125 C 2.054688 -0.414062 1.765625 -0.53125 1.609375 -0.625 L 1.609375 -16.15625 L 3.75 -16.15625 L 3.75 -11.5625 L 3.671875 -10.015625 C 4.015625 -10.367188 4.425781 -10.660156 4.90625 -10.890625 C 5.382812 -11.128906 5.988281 -11.25 6.71875 -11.25 Z M 8.921875 -5.765625 C 8.921875 -7.046875 8.679688 -8 8.203125 -8.625 C 7.722656 -9.25 7.03125 -9.5625 6.125 -9.5625 C 5.65625 -9.5625 5.21875 -9.472656 4.8125 -9.296875 C 4.414062 -9.117188 4.0625 -8.90625 3.75 -8.65625 L 3.75 -1.796875 C 4.125 -1.535156 4.789062 -1.40625 5.75 -1.40625 C 6.351562 -1.40625 6.894531 -1.570312 7.375 -1.90625 C 7.863281 -2.238281 8.242188 -2.734375 8.515625 -3.390625 C 8.785156 -4.046875 8.921875 -4.835938 8.921875 -5.765625 Z M 8.921875 -5.765625 "/></g></g></g><g fill="#fff6e4" fill-opacity="1"><g transform="translate(36.089312, 108.008672)"><g><path d="M 4.0625 -16.1875 L 4.0625 0 L 1.921875 0 L 1.921875 -16.1875 Z M 4.0625 -16.1875 "/></g></g></g><g fill="#fff6e4" fill-opacity="1"><g transform="translate(42.050974, 108.008672)"><g><path d="M 4.015625 -11.0625 L 4.015625 0 L 1.875 0 L 1.875 -11.0625 Z M 1.46875 -14.421875 C 1.46875 -14.691406 1.539062 -14.941406 1.6875 -15.171875 C 1.84375 -15.410156 2.046875 -15.597656 2.296875 -15.734375 C 2.546875 -15.867188 2.796875 -15.9375 3.046875 -15.9375 C 3.484375 -15.9375 3.820312 -15.8125 4.0625 -15.5625 C 4.300781 -15.3125 4.421875 -15 4.421875 -14.625 C 4.421875 -14.332031 4.34375 -14.066406 4.1875 -13.828125 C 4.039062 -13.597656 3.847656 -13.421875 3.609375 -13.296875 C 3.367188 -13.171875 3.113281 -13.109375 2.84375 -13.109375 C 2.59375 -13.109375 2.363281 -13.160156 2.15625 -13.265625 C 1.945312 -13.367188 1.78125 -13.519531 1.65625 -13.71875 C 1.53125 -13.925781 1.46875 -14.160156 1.46875 -14.421875 Z M 1.46875 -14.421875 "/></g></g></g><g fill="#fff6e4" fill-opacity="1"><g transform="translate(47.944558, 108.008672)"><g><path d="M 0.9375 -5.640625 C 0.9375 -6.828125 1.148438 -7.835938 1.578125 -8.671875 C 2.015625 -9.515625 2.613281 -10.15625 3.375 -10.59375 C 4.144531 -11.03125 5.015625 -11.25 5.984375 -11.25 C 7.109375 -11.25 8.035156 -10.988281 8.765625 -10.46875 C 9.492188 -9.945312 10.023438 -9.25 10.359375 -8.375 C 10.691406 -7.507812 10.859375 -6.535156 10.859375 -5.453125 C 10.859375 -4.265625 10.640625 -3.25 10.203125 -2.40625 C 9.773438 -1.5625 9.175781 -0.921875 8.40625 -0.484375 C 7.644531 -0.0546875 6.773438 0.15625 5.796875 0.15625 C 4.679688 0.15625 3.757812 -0.101562 3.03125 -0.625 C 2.3125 -1.144531 1.78125 -1.835938 1.4375 -2.703125 C 1.101562 -3.566406 0.9375 -4.546875 0.9375 -5.640625 Z M 8.703125 -5.40625 C 8.703125 -6.238281 8.597656 -6.976562 8.390625 -7.625 C 8.179688 -8.269531 7.863281 -8.773438 7.4375 -9.140625 C 7.019531 -9.515625 6.492188 -9.703125 5.859375 -9.703125 C 4.960938 -9.703125 4.28125 -9.359375 3.8125 -8.671875 C 3.34375 -7.992188 3.109375 -7.019531 3.109375 -5.75 C 3.109375 -4.925781 3.207031 -4.179688 3.40625 -3.515625 C 3.613281 -2.847656 3.925781 -2.320312 4.34375 -1.9375 C 4.769531 -1.550781 5.296875 -1.359375 5.921875 -1.359375 C 6.828125 -1.359375 7.515625 -1.710938 7.984375 -2.421875 C 8.460938 -3.128906 8.703125 -4.125 8.703125 -5.40625 Z M 8.703125 -5.40625 "/></g></g></g><g fill="#fff6e4" fill-opacity="1"><g transform="translate(59.741451, 108.008672)"><g><path d="M 0.609375 -13.125 L 0.609375 -14.8125 L 12.0625 -14.8125 L 12.0625 -13.125 L 7.421875 -13.125 L 7.421875 0 L 5.234375 0 L 5.234375 -13.125 Z M 0.609375 -13.125 "/></g></g></g><g fill="#fff6e4" fill-opacity="1"><g transform="translate(72.413628, 108.008672)"><g><path d="M 9.984375 -7.0625 C 9.984375 -6.539062 9.972656 -6.132812 9.953125 -5.84375 C 9.941406 -5.550781 9.914062 -5.296875 9.875 -5.078125 L 3.03125 -5.078125 C 3.039062 -5.035156 3.046875 -4.972656 3.046875 -4.890625 C 3.148438 -2.597656 4.28125 -1.453125 6.4375 -1.453125 C 6.820312 -1.453125 7.3125 -1.515625 7.90625 -1.640625 C 8.5 -1.765625 8.925781 -1.90625 9.1875 -2.0625 L 9.59375 -0.84375 C 9.238281 -0.550781 8.695312 -0.3125 7.96875 -0.125 C 7.25 0.0625 6.546875 0.15625 5.859375 0.15625 C 4.816406 0.15625 3.925781 -0.0664062 3.1875 -0.515625 C 2.457031 -0.972656 1.898438 -1.628906 1.515625 -2.484375 C 1.128906 -3.335938 0.9375 -4.363281 0.9375 -5.5625 C 0.9375 -6.65625 1.125 -7.625 1.5 -8.46875 C 1.882812 -9.320312 2.445312 -9.992188 3.1875 -10.484375 C 3.9375 -10.972656 4.835938 -11.226562 5.890625 -11.25 C 6.640625 -11.257812 7.316406 -11.101562 7.921875 -10.78125 C 8.535156 -10.46875 9.023438 -9.992188 9.390625 -9.359375 C 9.753906 -8.722656 9.953125 -7.957031 9.984375 -7.0625 Z M 7.96875 -6.5 C 7.988281 -6.707031 8 -6.859375 8 -6.953125 C 8 -7.773438 7.832031 -8.441406 7.5 -8.953125 C 7.164062 -9.472656 6.59375 -9.734375 5.78125 -9.734375 C 5.0625 -9.734375 4.460938 -9.476562 3.984375 -8.96875 C 3.503906 -8.457031 3.207031 -7.632812 3.09375 -6.5 Z M 7.96875 -6.5 "/></g></g></g><g fill="#fff6e4" fill-opacity="1"><g transform="translate(83.335237, 108.008672)"><g><path d="M 6.296875 -11.25 C 6.929688 -11.25 7.488281 -11.1875 7.96875 -11.0625 C 8.457031 -10.945312 8.8125 -10.816406 9.03125 -10.671875 L 8.6875 -8.984375 C 8.382812 -9.191406 8.03125 -9.34375 7.625 -9.4375 C 7.226562 -9.539062 6.753906 -9.59375 6.203125 -9.59375 C 5.640625 -9.59375 5.113281 -9.445312 4.625 -9.15625 C 4.144531 -8.875 3.753906 -8.429688 3.453125 -7.828125 C 3.160156 -7.222656 3.015625 -6.457031 3.015625 -5.53125 C 3.015625 -4.675781 3.148438 -3.941406 3.421875 -3.328125 C 3.691406 -2.710938 4.0625 -2.242188 4.53125 -1.921875 C 5.007812 -1.609375 5.546875 -1.453125 6.140625 -1.453125 C 6.648438 -1.453125 7.144531 -1.519531 7.625 -1.65625 C 8.113281 -1.789062 8.5 -1.941406 8.78125 -2.109375 L 9.21875 -0.890625 C 8.875 -0.578125 8.394531 -0.320312 7.78125 -0.125 C 7.164062 0.0625 6.507812 0.15625 5.8125 0.15625 C 4.800781 0.15625 3.925781 -0.0820312 3.1875 -0.5625 C 2.457031 -1.050781 1.898438 -1.71875 1.515625 -2.5625 C 1.128906 -3.40625 0.9375 -4.359375 0.9375 -5.421875 C 0.9375 -6.535156 1.140625 -7.53125 1.546875 -8.40625 C 1.953125 -9.289062 2.554688 -9.984375 3.359375 -10.484375 C 4.171875 -10.992188 5.148438 -11.25 6.296875 -11.25 Z M 6.296875 -11.25 "/></g></g></g><g fill="#fff6e4" fill-opacity="1"><g transform="translate(93.080074, 108.008672)"><g><path d="M 7.625 -11.25 C 8.394531 -11.25 9.019531 -11.09375 9.5 -10.78125 C 9.976562 -10.476562 10.328125 -10 10.546875 -9.34375 C 10.773438 -8.6875 10.890625 -7.828125 10.890625 -6.765625 L 10.890625 0 L 8.75 0 L 8.75 -6.921875 C 8.75 -7.546875 8.679688 -8.046875 8.546875 -8.421875 C 8.421875 -8.796875 8.203125 -9.066406 7.890625 -9.234375 C 7.578125 -9.410156 7.140625 -9.488281 6.578125 -9.46875 C 6.191406 -9.457031 5.742188 -9.359375 5.234375 -9.171875 C 4.734375 -8.992188 4.273438 -8.753906 3.859375 -8.453125 L 3.859375 0 L 1.71875 0 L 1.71875 -16.1875 L 3.859375 -16.1875 L 3.859375 -11.5625 L 3.75 -10 C 4.226562 -10.34375 4.828125 -10.632812 5.546875 -10.875 C 6.265625 -11.125 6.957031 -11.25 7.625 -11.25 Z M 7.625 -11.25 "/></g></g></g></svg>